<svg preserveAspectRatio="none" width="100%" height="100%" overflow="visible" style="display: block;" viewBox="0 0 153 38" fill="none" xmlns="http://www.w3.org/2000/svg">
<g id="Group">
<path id="Vector" d="M11.1568 37.8492L8.33784 33.0618C8.02562 32.5309 7.77826 32.0664 7.57464 31.5913C7.61838 32.3771 7.65006 34.4992 7.65006 35.7707V37.8492H6.69229V30.3861H8.00451L10.7903 35.0845C11.0694 35.5716 11.3499 36.1011 11.5867 36.5988C11.555 35.6697 11.5113 33.5807 11.5113 32.2866V30.3846H12.4691V37.8477H11.1568V37.8492Z" fill="var(--fill-0, #0a0a0a)"/>
<path id="Vector_2" d="M17.3635 31.2368V37.8492H16.374V31.2368H14.2866V30.3846H19.4615V31.2368H17.3635Z" fill="var(--fill-0, #0a0a0a)"/>
<path id="Vector_3" d="M24.7647 37.8492L22.3876 34.5098H22.2579V37.8492H21.2685V30.3861C21.7632 30.3529 22.2911 30.3424 23.086 30.3424C24.5173 30.3424 25.549 30.8627 25.549 32.2881C25.549 33.5596 24.5701 34.3002 23.4193 34.3891C23.635 34.6546 23.8597 34.9427 24.0437 35.1855L26.0226 37.8507H24.7632L24.7647 37.8492ZM22.914 31.1704C22.6667 31.1704 22.451 31.181 22.2579 31.1931V33.736C22.365 33.7466 22.5807 33.7587 22.8718 33.7587C23.9155 33.7587 24.5173 33.2172 24.5173 32.4208C24.5173 31.5249 23.9683 31.1719 22.914 31.1719" fill="var(--fill-0, #0a0a0a)"/>
<path id="Vector_4" d="M27.9276 37.8492V30.3846H31.6606V31.2247H28.917V33.5913H31.5309V34.4103H28.917V36.997H31.6606V37.8492H27.9276Z" fill="var(--fill-0, #0a0a0a)"/>
<path id="Vector_5" d="M35.7059 35.0513C35.3514 35.0513 35.0392 35.0181 35.0392 35.0181V37.8492H34.0498V30.3861C34.0498 30.3861 35.0075 30.3424 35.8673 30.3424C37.546 30.3424 38.46 31.1946 38.46 32.5204C38.46 34.0015 37.4268 35.0528 35.7059 35.0528M35.7587 31.181C35.371 31.181 35.0377 31.2036 35.0377 31.2036V34.1448C35.0377 34.1448 35.3816 34.2112 35.7903 34.2112C36.8989 34.2112 37.4359 33.5913 37.4359 32.6516C37.4359 31.7119 36.8974 31.181 35.7572 31.181" fill="var(--fill-0, #0a0a0a)"/>
<path id="Vector_6" d="M43.9351 37.8492L41.5581 34.5098H41.4283V37.8492H40.4389V30.3861C40.9336 30.3529 41.4615 30.3424 42.2564 30.3424C43.6878 30.3424 44.7194 30.8627 44.7194 32.2881C44.7194 33.5596 43.7406 34.3002 42.5897 34.3891C42.8054 34.6546 43.0302 34.9427 43.2142 35.1855L45.193 37.8507H43.9336L43.9351 37.8492ZM42.0845 31.1704C41.8371 31.1704 41.6214 31.181 41.4283 31.1931V33.736C41.5354 33.7466 41.7511 33.7587 42.0422 33.7587C43.086 33.7587 43.6878 33.2172 43.6878 32.4208C43.6878 31.5249 43.1387 31.1719 42.0845 31.1719" fill="var(--fill-0, #0a0a0a)"/>
<path id="Vector_7" d="M47.098 37.8492V30.3846H50.8311V31.2247H48.0875V33.5913H50.7013V34.4103H48.0875V36.997H50.8311V37.8492H47.098Z" fill="var(--fill-0, #0a0a0a)"/>
<path id="Vector_8" d="M57.6832 37.8492L54.8642 33.0618C54.552 32.5309 54.3047 32.0664 54.0995 31.5913C54.1433 32.3771 54.175 34.4992 54.175 35.7707V37.8492H53.2172V30.3861H54.5294L57.3167 35.0845C57.5973 35.5716 57.8763 36.1011 58.1131 36.5988C58.0814 35.6697 58.0377 33.5807 58.0377 32.2866V30.3846H58.9955V37.8477H57.6832V37.8492Z" fill="var(--fill-0, #0a0a0a)"/>
<path id="Vector_9" d="M61.7391 37.8492V30.3846H65.4721V31.2247H62.7285V33.5913H65.3439V34.4103H62.7285V36.997H65.4721V37.8492H61.7391Z" fill="var(--fill-0, #0a0a0a)"/>
<path id="Vector_10" d="M70.5611 37.9593C68.2911 37.9593 67.8386 36.6652 67.8386 35.3394V30.3861H68.828V35.2624C68.828 36.2911 69.1614 37.1207 70.6244 37.1207C71.8944 37.1207 72.4857 36.5792 72.4857 35.0754V30.3876H73.454V34.9985C73.454 36.9563 72.454 37.9623 70.5596 37.9623" fill="var(--fill-0, #0a0a0a)"/>
<path id="Vector_11" d="M79.6727 37.8492L77.2956 34.5098H77.1659V37.8492H76.1765V30.3861C76.6712 30.3529 77.1991 30.3424 77.9955 30.3424C79.4268 30.3424 80.4585 30.8627 80.4585 32.2881C80.4585 33.5596 79.4796 34.3002 78.3288 34.3891C78.543 34.6546 78.7692 34.9427 78.9532 35.1855L80.9321 37.8507H79.6727V37.8492ZM77.822 31.1704C77.5747 31.1704 77.359 31.181 77.1659 31.1931V33.736C77.273 33.7466 77.4887 33.7587 77.7798 33.7587C78.8235 33.7587 79.4253 33.2172 79.4253 32.4208C79.4253 31.5249 78.8763 31.1719 77.822 31.1719" fill="var(--fill-0, #0a0a0a)"/>
<path id="Vector_12" d="M84.1267 37.9487C83.5354 37.9487 82.9864 37.8718 82.5339 37.7391L82.6516 36.7662C83.1146 36.9548 83.641 37.0649 84.1795 37.0649C85.0181 37.0649 85.7496 36.7104 85.7496 35.7934C85.7496 34.1131 82.4691 34.7768 82.4691 32.3997C82.4691 31.1719 83.3725 30.2881 85.0075 30.2881C85.4268 30.2881 85.911 30.3318 86.3197 30.4314L86.2021 31.3273C85.8145 31.2051 85.374 31.1282 84.9532 31.1282C83.9638 31.1282 83.4902 31.5928 83.4902 32.2896C83.4902 33.8929 86.8145 33.3183 86.8145 35.6621C86.8145 37 85.7496 37.9517 84.1252 37.9517" fill="var(--fill-0, #0a0a0a)"/>
<path id="Vector_13" d="M93.647 37.8492V34.4103H89.9457V37.8492H88.9563V30.3846H89.9457V33.5475H93.647V30.3846H94.6365V37.8492H93.647Z" fill="var(--fill-0, #0a0a0a)"/>
<path id="Vector_14" d="M98.3695 30.3846H97.3801V37.8477H98.3695V30.3846Z" fill="var(--fill-0, #0a0a0a)"/>
<path id="Vector_15" d="M102.769 35.0513C102.415 35.0513 102.103 35.0181 102.103 35.0181V37.8492H101.113V30.3861C101.113 30.3861 102.071 30.3424 102.931 30.3424C104.609 30.3424 105.523 31.1946 105.523 32.5204C105.523 34.0015 104.49 35.0528 102.769 35.0528M102.824 31.181C102.436 31.181 102.103 31.2036 102.103 31.2036V34.1448C102.103 34.1448 102.446 34.2112 102.855 34.2112C103.964 34.2112 104.501 33.5913 104.501 32.6516C104.501 31.7119 103.962 31.181 102.822 31.181" fill="var(--fill-0, #0a0a0a)"/>
<path id="Vector_16" d="M4.88083 2.99095H6.79938V10.0453H7.84312V11.5505H6.71341C6.42231 13.4208 5.28053 14.3424 3.36198 14.3424C1.26092 14.3424 0.144784 13.2383 0.144784 10.8462C0.144784 10.2142 0.242823 9.44947 0.423819 8.75867L2.41477 8.40724C2.184 9.17195 2.06183 9.96079 2.06183 10.6652C2.06183 12.3891 2.74207 12.8386 3.50678 12.8386C4.35595 12.8386 4.87932 12.3167 4.87932 10.629V2.99246L4.88083 2.99095Z" fill="var(--fill-0, #0a0a0a)"/>
<path id="Vector_17" d="M8.94719 10.0452H7.66061V11.5505H8.94719V10.0452Z" fill="var(--fill-0, #0a0a0a)"/>
<path id="Vector_18" d="M10.2111 10.0452H8.92457V11.5505H10.2111V10.0452Z" fill="var(--fill-0, #0a0a0a)"/>
<path id="Vector_19" d="M11.4736 10.0452H10.187V11.5505H11.4736V10.0452Z" fill="var(--fill-0, #0a0a0a)"/>
<path id="Vector_20" d="M12.736 10.0452H11.4495V11.5505H12.736V10.0452Z" fill="var(--fill-0, #0a0a0a)"/>
<path id="Vector_21" d="M13.9985 10.0452H12.7119V11.5505H13.9985V10.0452Z" fill="var(--fill-0, #0a0a0a)"/>
<path id="Vector_22" d="M15.2609 10.0452H13.9743V11.5505H15.2609V10.0452Z" fill="var(--fill-0, #0a0a0a)"/>
<path id="Vector_23" d="M16.5249 10.0452H15.2383V11.5505H16.5249V10.0452Z" fill="var(--fill-0, #0a0a0a)"/>
<path id="Vector_24" d="M17.7873 10.0452H16.5007V11.5505H17.7873V10.0452Z" fill="var(--fill-0, #0a0a0a)"/>
<path id="Vector_25" d="M19.0498 10.0452H17.7632V11.5505H19.0498V10.0452Z" fill="var(--fill-0, #0a0a0a)"/>
<path id="Vector_26" d="M20.3122 10.0452H19.0256V11.5505H20.3122V10.0452Z" fill="var(--fill-0, #0a0a0a)"/>
<path id="Vector_27" d="M21.5746 10.0452H20.2881V11.5505H21.5746V10.0452Z" fill="var(--fill-0, #0a0a0a)"/>
<path id="Vector_28" d="M21.552 10.0452H23.1915V5.84465H25.1222V10.0452H26.6395V11.5505H21.552V10.0452ZM22.5837 14.3077C22.0739 14.3077 21.6727 13.8944 21.6727 13.3725C21.6727 12.8507 22.0724 12.4374 22.5837 12.4374C23.095 12.4374 23.4947 12.8627 23.4947 13.3725C23.4947 13.8824 23.0935 14.3077 22.5837 14.3077ZM24.7451 14.3077C24.2232 14.3077 23.8341 13.8944 23.8341 13.3725C23.8341 12.8507 24.2217 12.4374 24.7451 12.4374C25.2685 12.4374 25.6561 12.8627 25.6561 13.3725C25.6561 13.8824 25.2549 14.3077 24.7451 14.3077Z" fill="var(--fill-0, #0a0a0a)"/>
<path id="Vector_29" d="M26.4449 11.5505V10.0452H26.9668C27.3801 10.0452 27.6229 10.1418 27.6229 10.1418C27.27 9.83861 27.089 9.36501 27.089 8.61237C27.089 7.08296 28.1568 5.67421 30.3182 5.67421C32.3213 5.67421 33.1599 6.84012 33.1599 8.50226V11.5505H26.4464H26.4449ZM31.2881 8.71041C31.2881 7.66667 30.8748 7.181 30.1946 7.181C29.4178 7.181 28.9804 7.80091 28.9804 8.57768C28.9804 9.56109 29.4781 10.0468 30.546 10.0468H31.2866V8.71192L31.2881 8.71041Z" fill="var(--fill-0, #0a0a0a)"/>
<path id="Vector_30" d="M48.2142 11.5505H41.6214C38.1614 11.5505 37.0196 10.0814 37.0196 7.90799C37.0196 7.32579 37.1403 6.59728 37.2986 6.08748L39.3499 5.76018C39.1071 6.30618 38.9608 7.08296 38.9608 7.71493C38.9608 9.33032 39.7858 10.0468 41.4615 10.0468H41.6802C41.4253 9.74359 41.3047 9.23379 41.3047 8.73605C41.3047 6.91554 42.6395 5.67572 44.4857 5.67572C46.3318 5.67572 47.3876 6.63499 47.3876 8.49321C47.3876 9.09955 47.2051 9.76772 46.8416 10.1086C46.8416 10.1086 47.279 10.0483 47.6802 10.0483H48.2142V11.5535V11.5505ZM44.365 7.17949C43.7949 7.17949 43.2232 7.59276 43.2232 8.5641C43.2232 9.58371 43.5747 10.0452 44.3273 10.0452C45.0075 10.0452 45.4691 9.53544 45.4691 8.61237C45.4691 7.68929 45.1418 7.17949 44.3635 7.17949M43.4057 3.99849C43.4057 3.47662 43.8311 3.05128 44.3529 3.05128C44.8748 3.05128 45.3122 3.46455 45.3122 3.99849C45.3122 4.53243 44.8869 4.95777 44.3529 4.95777C43.819 4.95777 43.4057 4.53243 43.4057 3.99849Z" fill="var(--fill-0, #0a0a0a)"/>
<path id="Vector_31" d="M49.3197 10.0452H48.0332V11.5505H49.3197V10.0452Z" fill="var(--fill-0, #0a0a0a)"/>
<path id="Vector_32" d="M50.5822 10.0452H49.2956V11.5505H50.5822V10.0452Z" fill="var(--fill-0, #0a0a0a)"/>
<path id="Vector_33" d="M51.8446 10.0452H50.5581V11.5505H51.8446V10.0452Z" fill="var(--fill-0, #0a0a0a)"/>
<path id="Vector_34" d="M53.1071 10.0452H51.8205V11.5505H53.1071V10.0452Z" fill="var(--fill-0, #0a0a0a)"/>
<path id="Vector_35" d="M54.3695 10.0452H53.0829V11.5505H54.3695V10.0452Z" fill="var(--fill-0, #0a0a0a)"/>
<path id="Vector_36" d="M55.6335 10.0452H54.3469V11.5505H55.6335V10.0452Z" fill="var(--fill-0, #0a0a0a)"/>
<path id="Vector_37" d="M56.8959 10.0452H55.6093V11.5505H56.8959V10.0452Z" fill="var(--fill-0, #0a0a0a)"/>
<path id="Vector_38" d="M56.8718 10.0453H58.2564V2.99095H60.1855V11.5505H56.8718V10.0453Z" fill="var(--fill-0, #0a0a0a)"/>
<path id="Vector_39" d="M61.3393 1.75264C61.546 1.75264 61.825 1.77677 61.9834 1.81297C61.8386 1.71644 61.7647 1.53394 61.7647 1.31523C61.7647 0.733032 62.2866 0.0407246 63.6591 0.0407246C64.0241 0.0407246 64.3635 0.113123 64.4117 0.113123L64.2413 1.06033C64.2051 1.06033 63.9502 1.01207 63.6093 1.01207C63.2338 1.01207 63.0513 1.15837 63.0513 1.3635C63.0513 1.6184 63.2338 1.75264 63.8522 1.75264H64.5927V2.72398H61.3393V1.75264ZM62.0799 3.35596H63.9985V11.552H62.0799V3.35596Z" fill="var(--fill-0, #0a0a0a)"/>
<path id="Vector_40" d="M69.6682 12.7768C69.6682 13.3469 70.2021 13.9306 71.5007 13.9306L71.3665 15.4359C68.8899 15.4359 67.7602 14.3801 67.7602 12.8748C67.7602 11.2715 69.0226 10.0452 71.816 10.0452H72.3982C72.4223 9.83861 72.4464 9.57164 72.4464 9.34087C72.4464 7.99246 71.8401 7.26395 70.2609 7.26395C69.7391 7.26395 69.2655 7.30015 68.828 7.37406V5.88085C69.3378 5.79638 69.92 5.76018 70.4434 5.76018C73.2111 5.76018 74.3409 6.95023 74.3409 9.28054C74.3409 9.52338 74.3288 9.77828 74.3167 10.0452H75.0332V11.5505H71.7677C70.1403 11.5505 69.6667 12.0965 69.6667 12.7768M71.7572 13.3725C71.7572 12.8386 72.1825 12.4253 72.7044 12.4253C73.2262 12.4253 73.6636 12.8386 73.6636 13.3725C73.6636 13.9065 73.2383 14.3198 72.7044 14.3198C72.1704 14.3198 71.7572 13.9065 71.7572 13.3725Z" fill="var(--fill-0, #0a0a0a)"/>
<path id="Vector_41" d="M74.8537 11.5505V10.0452H75.3756C75.7888 10.0452 76.0317 10.1418 76.0317 10.1418C75.6787 9.83861 75.4977 9.36501 75.4977 8.61237C75.4977 7.08296 76.5656 5.67421 78.727 5.67421C80.73 5.67421 81.5686 6.84012 81.5686 8.50226V11.5505H74.8552H74.8537ZM79.6983 8.71041C79.6983 7.66667 79.2851 7.181 78.6048 7.181C77.828 7.181 77.3906 7.80091 77.3906 8.57768C77.3906 9.56109 77.8884 10.0468 78.9562 10.0468H79.6968V8.71192L79.6983 8.71041Z" fill="var(--fill-0, #0a0a0a)"/>
<path id="Vector_42" d="M83.2308 2.99095H85.1493V10.0453H86.2911V11.5505H83.2308V2.99095Z" fill="var(--fill-0, #0a0a0a)"/>
<path id="Vector_43" d="M87.3952 10.0452H86.1086V11.5505H87.3952V10.0452Z" fill="var(--fill-0, #0a0a0a)"/>
<path id="Vector_44" d="M88.6576 10.0452H87.371V11.5505H88.6576V10.0452Z" fill="var(--fill-0, #0a0a0a)"/>
<path id="Vector_45" d="M89.9216 10.0452H88.635V11.5505H89.9216V10.0452Z" fill="var(--fill-0, #0a0a0a)"/>
<path id="Vector_46" d="M91.184 10.0452H89.8974V11.5505H91.184V10.0452Z" fill="var(--fill-0, #0a0a0a)"/>
<path id="Vector_47" d="M92.4464 10.0452H91.1599V11.5505H92.4464V10.0452Z" fill="var(--fill-0, #0a0a0a)"/>
<path id="Vector_48" d="M93.7089 10.0452H92.4223V11.5505H93.7089V10.0452Z" fill="var(--fill-0, #0a0a0a)"/>
<path id="Vector_49" d="M93.6848 10.0452H95.3243V5.84464H97.2549V11.5505H93.6848V10.0452ZM95.3363 4.06033C95.3363 3.53846 95.7617 3.11312 96.2835 3.11312C96.8054 3.11312 97.2428 3.5264 97.2428 4.06033C97.2428 4.59427 96.8175 5.01961 96.2835 5.01961C95.7496 5.01961 95.3363 4.59427 95.3363 4.06033Z" fill="var(--fill-0, #0a0a0a)"/>
<path id="Vector_50" d="M97.1825 14.537L97.3152 13.0196C97.546 13.0799 97.7888 13.1161 98.1403 13.1161C98.8446 13.1161 99.2459 12.8009 99.2459 11.6712V5.84314H101.164V10.0437H102.27V11.549H101.164V11.5973C101.164 13.0302 100.715 14.6078 98.0437 14.6078C97.7164 14.6078 97.4495 14.5837 97.1825 14.5354" fill="var(--fill-0, #0a0a0a)"/>
<path id="Vector_51" d="M102.075 10.0452H103.715V5.84465H105.646V11.5505H102.075V10.0452ZM102.78 13.3725C102.78 12.8386 103.205 12.4253 103.727 12.4253C104.249 12.4253 104.686 12.8386 104.686 13.3725C104.686 13.9065 104.261 14.3198 103.727 14.3198C103.193 14.3198 102.78 13.9065 102.78 13.3725Z" fill="var(--fill-0, #0a0a0a)"/>
<path id="Vector_52" d="M3.13875 19.5098H3.8582V24.5581C3.8582 26.1704 3.05277 26.8356 1.92457 26.8356C0.796364 26.8356 -1.55747e-05 26.2564 -1.55747e-05 24.6516C-1.55747e-05 24.1433 0.0708736 23.6259 0.196062 23.1644L0.939652 23.0241C0.790331 23.54 0.72095 24.0724 0.72095 24.5822C0.72095 25.9201 1.37857 26.2655 1.99697 26.2655C2.61537 26.2655 3.14026 25.8748 3.14026 24.6305V19.5113L3.13875 19.5098Z" fill="var(--fill-0, #0a0a0a)"/>
<path id="Vector_53" d="M5.32126 19.5098H6.04071V24.457H6.90195V25.0271H5.32126V19.5098Z" fill="var(--fill-0, #0a0a0a)"/>
<path id="Vector_54" d="M7.69983 24.457H6.7843V25.0287H7.69983V24.457Z" fill="var(--fill-0, #0a0a0a)"/>
<path id="Vector_55" d="M8.59878 24.457H7.68324V25.0287H8.59878V24.457Z" fill="var(--fill-0, #0a0a0a)"/>
<path id="Vector_56" d="M9.49923 24.457H8.58369V25.0287H9.49923V24.457Z" fill="var(--fill-0, #0a0a0a)"/>
<path id="Vector_57" d="M10.3982 24.457H9.48264V25.0287H10.3982V24.457Z" fill="var(--fill-0, #0a0a0a)"/>
<path id="Vector_58" d="M11.2986 24.457H10.3831V25.0287H11.2986V24.457Z" fill="var(--fill-0, #0a0a0a)"/>
<path id="Vector_59" d="M12.1991 24.457H11.2835V25.0287H12.1991V24.457Z" fill="var(--fill-0, #0a0a0a)"/>
<path id="Vector_60" d="M13.098 24.457H12.1825V25.0287H13.098V24.457Z" fill="var(--fill-0, #0a0a0a)"/>
<path id="Vector_61" d="M13.9985 24.457H13.0829V25.0287H13.9985V24.457Z" fill="var(--fill-0, #0a0a0a)"/>
<path id="Vector_62" d="M14.8974 24.457H13.9819V25.0287H14.8974V24.457Z" fill="var(--fill-0, #0a0a0a)"/>
<path id="Vector_63" d="M15.7979 24.457H14.8823V25.0287H15.7979V24.457Z" fill="var(--fill-0, #0a0a0a)"/>
<path id="Vector_64" d="M16.6983 24.457H15.7828V25.0287H16.6983V24.457Z" fill="var(--fill-0, #0a0a0a)"/>
<path id="Vector_65" d="M17.5973 24.457H16.6817V25.0287H17.5973V24.457Z" fill="var(--fill-0, #0a0a0a)"/>
<path id="Vector_66" d="M18.4977 24.457H17.5822V25.0287H18.4977V24.457Z" fill="var(--fill-0, #0a0a0a)"/>
<path id="Vector_67" d="M19.3967 24.457H18.4811V25.0287H19.3967V24.457Z" fill="var(--fill-0, #0a0a0a)"/>
<path id="Vector_68" d="M20.2971 24.457H19.3816V25.0287H20.2971V24.457Z" fill="var(--fill-0, #0a0a0a)"/>
<path id="Vector_69" d="M21.1961 24.457H20.2805V25.0287H21.1961V24.457Z" fill="var(--fill-0, #0a0a0a)"/>
<path id="Vector_70" d="M22.0965 24.457H21.181V25.0287H22.0965V24.457Z" fill="var(--fill-0, #0a0a0a)"/>
<path id="Vector_71" d="M22.997 24.457H22.0814V25.0287H22.997V24.457Z" fill="var(--fill-0, #0a0a0a)"/>
<path id="Vector_72" d="M23.8959 24.457H22.9804V25.0287H23.8959V24.457Z" fill="var(--fill-0, #0a0a0a)"/>
<path id="Vector_73" d="M24.7964 24.457H23.8808V25.0287H24.7964V24.457Z" fill="var(--fill-0, #0a0a0a)"/>
<path id="Vector_74" d="M25.6953 24.457H24.7798V25.0287H25.6953V24.457Z" fill="var(--fill-0, #0a0a0a)"/>
<path id="Vector_75" d="M26.5958 24.457H25.6802V25.0287H26.5958V24.457Z" fill="var(--fill-0, #0a0a0a)"/>
<path id="Vector_76" d="M27.4962 24.457H26.5807V25.0287H27.4962V24.457Z" fill="var(--fill-0, #0a0a0a)"/>
<path id="Vector_77" d="M28.3952 24.457H27.4796V25.0287H28.3952V24.457Z" fill="var(--fill-0, #0a0a0a)"/>
<path id="Vector_78" d="M29.2956 24.457H28.3801V25.0287H29.2956V24.457Z" fill="var(--fill-0, #0a0a0a)"/>
<path id="Vector_79" d="M30.1946 24.457H29.279V25.0287H30.1946V24.457Z" fill="var(--fill-0, #0a0a0a)"/>
<path id="Vector_80" d="M31.095 24.457H30.1795V25.0287H31.095V24.457Z" fill="var(--fill-0, #0a0a0a)"/>
<path id="Vector_81" d="M31.994 24.457H31.0784V25.0287H31.994V24.457Z" fill="var(--fill-0, #0a0a0a)"/>
<path id="Vector_82" d="M32.8944 24.457H31.9789V25.0287H32.8944V24.457Z" fill="var(--fill-0, #0a0a0a)"/>
<path id="Vector_83" d="M33.7949 24.457H32.8793V25.0287H33.7949V24.457Z" fill="var(--fill-0, #0a0a0a)"/>
<path id="Vector_84" d="M34.6938 24.457H33.7783V25.0287H34.6938V24.457Z" fill="var(--fill-0, #0a0a0a)"/>
<path id="Vector_85" d="M35.5943 24.457H34.6787V25.0287H35.5943V24.457Z" fill="var(--fill-0, #0a0a0a)"/>
<path id="Vector_86" d="M36.4947 24.457H35.5792V25.0287H36.4947V24.457Z" fill="var(--fill-0, #0a0a0a)"/>
<path id="Vector_87" d="M37.6365 24.2926C37.5188 24.7074 37.1282 25.0287 36.4389 25.0287H36.3213V24.457C36.8929 24.457 37.2835 24.2217 37.2835 23.1735C37.2835 22.1252 37.9412 21.264 39.2398 21.264C40.359 21.264 40.9155 21.905 40.9155 23.0166V24.457H41.6983V25.0287H39.4434C38.2926 25.0287 37.8944 24.724 37.635 24.2926M40.2112 23.1418C40.2112 22.2021 39.828 21.8341 39.178 21.8341C38.4495 21.8341 38.0121 22.3514 38.0121 23.1342C38.0121 24.0256 38.4344 24.457 39.4359 24.457H40.2112V23.1418Z" fill="var(--fill-0, #0a0a0a)"/>
<path id="Vector_88" d="M41.5792 24.457H43.089C42.6199 24.2459 42.2519 23.7285 42.2519 23.0724C42.2519 22.1026 42.8854 21.264 44.1855 21.264C44.733 21.264 45.2036 21.4359 45.2036 21.4359L45.0709 22.0151C45.0709 22.0151 44.6395 21.8281 44.1388 21.8281C43.4495 21.8281 42.9728 22.2821 42.9728 23.0407C42.9728 23.8386 43.5912 24.457 45.0543 24.457H45.6968V25.0287H41.5807V24.457H41.5792Z" fill="var(--fill-0, #0a0a0a)"/>
<path id="Vector_89" d="M46.1342 19.8069C46.3062 19.8069 46.4706 19.8069 46.5958 19.8311C46.5173 19.7843 46.4464 19.6742 46.4464 19.5339C46.4464 19.1584 46.7511 18.8446 47.362 18.8446C47.5264 18.8446 47.6908 18.8673 47.7918 18.8914L47.7209 19.3062C47.6274 19.2836 47.4857 19.267 47.3454 19.267C47.1101 19.267 46.9698 19.3695 46.9698 19.5249C46.9698 19.6968 47.1267 19.8069 47.4947 19.8069H47.9562V20.2217H46.1327V19.8069H46.1342ZM48.5279 23.7511H47.7994L46.813 20.4962H47.549L48.5264 23.7511H48.5279ZM46.8929 25.0271V24.4555H49.3107V19.5792H50.0377V25.0256H46.8914L46.8929 25.0271Z" fill="var(--fill-0, #0a0a0a)"/>
<path id="Vector_90" d="M52.2443 19.5098H51.5249V25.0271H52.2443V19.5098Z" fill="var(--fill-0, #0a0a0a)"/>
<path id="Vector_91" d="M57.0965 25.0271C55.5943 25.0271 55.0452 24.3152 55.0452 23.2036C55.0452 22.1554 55.7029 21.2624 57.0015 21.2624C58.1207 21.2624 58.6772 21.9035 58.6772 23.0151V25.0271H57.0965ZM57.9728 23.1418C57.9728 22.2021 57.5897 21.8341 56.9397 21.8341C56.2112 21.8341 55.7737 22.3499 55.7737 23.1327C55.7737 24.0241 56.1961 24.4555 57.1976 24.4555H57.9728V23.1403V23.1418ZM55.9623 20.2066C55.9623 19.9789 56.1418 19.7919 56.3771 19.7919C56.6124 19.7919 56.7918 19.9713 56.7918 20.2066C56.7918 20.4419 56.6048 20.629 56.3771 20.629C56.1493 20.629 55.9623 20.4495 55.9623 20.2066ZM57.1116 20.2066C57.1116 19.9789 57.3001 19.7919 57.5339 19.7919C57.7677 19.7919 57.9412 19.9713 57.9412 20.2066C57.9412 20.4419 57.7617 20.629 57.5339 20.629C57.3062 20.629 57.1116 20.4495 57.1116 20.2066Z" fill="var(--fill-0, #0a0a0a)"/>
<path id="Vector_92" d="M59.7496 24.457H62.2609C62.2383 23.0241 61.6742 22.2262 60.2881 21.8039L60.4676 21.1931C62.1659 21.7179 62.9713 22.6727 62.9713 24.6365V25.0271H59.7466V24.4555L59.7496 24.457Z" fill="var(--fill-0, #0a0a0a)"/>
<path id="Vector_93" d="M64.2096 19.5098H64.9291V24.457H65.7903V25.0271H64.2096V19.5098Z" fill="var(--fill-0, #0a0a0a)"/>
<path id="Vector_94" d="M66.5882 24.457H65.6727V25.0287H66.5882V24.457Z" fill="var(--fill-0, #0a0a0a)"/>
<path id="Vector_95" d="M67.4872 24.457H66.5716V25.0287H67.4872V24.457Z" fill="var(--fill-0, #0a0a0a)"/>
<path id="Vector_96" d="M68.3876 24.457H67.4721V25.0287H68.3876V24.457Z" fill="var(--fill-0, #0a0a0a)"/>
<path id="Vector_97" d="M69.2866 24.457H68.371V25.0287H69.2866V24.457Z" fill="var(--fill-0, #0a0a0a)"/>
<path id="Vector_98" d="M70.187 24.457H69.2715V25.0287H70.187V24.457Z" fill="var(--fill-0, #0a0a0a)"/>
<path id="Vector_99" d="M71.0875 24.457H70.1719V25.0287H71.0875V24.457Z" fill="var(--fill-0, #0a0a0a)"/>
<path id="Vector_100" d="M71.9864 24.457H71.0709V25.0287H71.9864V24.457Z" fill="var(--fill-0, #0a0a0a)"/>
<path id="Vector_101" d="M72.8869 24.457H71.9713V25.0287H72.8869V24.457Z" fill="var(--fill-0, #0a0a0a)"/>
<path id="Vector_102" d="M73.7858 24.457H72.8703V25.0287H73.7858V24.457Z" fill="var(--fill-0, #0a0a0a)"/>
<path id="Vector_103" d="M74.6863 24.457H73.7707V25.0287H74.6863V24.457Z" fill="var(--fill-0, #0a0a0a)"/>
<path id="Vector_104" d="M75.5852 24.457H74.6697V25.0287H75.5852V24.457Z" fill="var(--fill-0, #0a0a0a)"/>
<path id="Vector_105" d="M76.4857 24.457H75.5701V25.0287H76.4857V24.457Z" fill="var(--fill-0, #0a0a0a)"/>
<path id="Vector_106" d="M77.3861 24.457H76.4706V25.0287H77.3861V24.457Z" fill="var(--fill-0, #0a0a0a)"/>
<path id="Vector_107" d="M78.2851 24.457H77.3695V25.0287H78.2851V24.457Z" fill="var(--fill-0, #0a0a0a)"/>
<path id="Vector_108" d="M79.1855 24.457H78.27V25.0287H79.1855V24.457Z" fill="var(--fill-0, #0a0a0a)"/>
<path id="Vector_109" d="M80.0845 24.457H79.1689V25.0287H80.0845V24.457Z" fill="var(--fill-0, #0a0a0a)"/>
<path id="Vector_110" d="M80.9849 24.457H80.0694V25.0287H80.9849V24.457Z" fill="var(--fill-0, #0a0a0a)"/>
<path id="Vector_111" d="M81.8854 24.457H80.9698V25.0287H81.8854V24.457Z" fill="var(--fill-0, #0a0a0a)"/>
<path id="Vector_112" d="M82.7843 24.457H81.8688V25.0287H82.7843V24.457Z" fill="var(--fill-0, #0a0a0a)"/>
<path id="Vector_113" d="M83.6848 24.457H82.7692V25.0287H83.6848V24.457Z" fill="var(--fill-0, #0a0a0a)"/>
<path id="Vector_114" d="M84.5837 24.457H83.6682V25.0287H84.5837V24.457Z" fill="var(--fill-0, #0a0a0a)"/>
<path id="Vector_115" d="M85.4841 24.457H84.5686V25.0287H85.4841V24.457Z" fill="var(--fill-0, #0a0a0a)"/>
<path id="Vector_116" d="M86.3846 24.457H85.4691V25.0287H86.3846V24.457Z" fill="var(--fill-0, #0a0a0a)"/>
<path id="Vector_117" d="M87.2835 24.457H86.368V25.0287H87.2835V24.457Z" fill="var(--fill-0, #0a0a0a)"/>
<path id="Vector_118" d="M88.184 24.457H87.2685V25.0287H88.184V24.457Z" fill="var(--fill-0, #0a0a0a)"/>
<path id="Vector_119" d="M89.083 24.457H88.1674V25.0287H89.083V24.457Z" fill="var(--fill-0, #0a0a0a)"/>
<path id="Vector_120" d="M89.9834 24.457H89.0679V25.0287H89.9834V24.457Z" fill="var(--fill-0, #0a0a0a)"/>
<path id="Vector_121" d="M90.8823 24.457H89.9668V25.0287H90.8823V24.457Z" fill="var(--fill-0, #0a0a0a)"/>
<path id="Vector_122" d="M91.7828 24.457H90.8672V25.0287H91.7828V24.457Z" fill="var(--fill-0, #0a0a0a)"/>
<path id="Vector_123" d="M92.6832 24.457H91.7677V25.0287H92.6832V24.457Z" fill="var(--fill-0, #0a0a0a)"/>
<path id="Vector_124" d="M93.5822 24.457H92.6667V25.0287H93.5822V24.457Z" fill="var(--fill-0, #0a0a0a)"/>
<path id="Vector_125" d="M94.4826 24.457H93.5671V25.0287H94.4826V24.457Z" fill="var(--fill-0, #0a0a0a)"/>
<path id="Vector_126" d="M95.3816 24.457H94.4661V25.0287H95.3816V24.457Z" fill="var(--fill-0, #0a0a0a)"/>
<path id="Vector_127" d="M96.282 24.457H95.3665V25.0287H96.282V24.457Z" fill="var(--fill-0, #0a0a0a)"/>
<path id="Vector_128" d="M97.1825 24.457H96.267V25.0287H97.1825V24.457Z" fill="var(--fill-0, #0a0a0a)"/>
<path id="Vector_129" d="M98.0814 24.457H97.1659V25.0287H98.0814V24.457Z" fill="var(--fill-0, #0a0a0a)"/>
<path id="Vector_130" d="M98.0663 24.457H99.6395V21.3499H100.359V25.0287H98.0663V24.457ZM98.7315 26.6169C98.4962 26.6169 98.3167 26.4374 98.3167 26.1946C98.3167 25.9668 98.4977 25.7798 98.7315 25.7798C98.9653 25.7798 99.1463 25.9593 99.1463 26.1946C99.1463 26.4299 98.9593 26.6169 98.7315 26.6169ZM99.8899 26.6169C99.6546 26.6169 99.4676 26.4374 99.4676 26.1946C99.4676 25.9668 99.6546 25.7798 99.8899 25.7798C100.125 25.7798 100.297 25.9593 100.297 26.1946C100.297 26.4299 100.118 26.6169 99.8899 26.6169Z" fill="var(--fill-0, #0a0a0a)"/>
<path id="Vector_131" d="M100.609 26.9291L100.688 26.3348C100.923 26.4208 101.189 26.4676 101.478 26.4676C102.128 26.4676 102.519 26.1538 102.519 25.1297V21.3499H103.238V24.457H104.1V25.0287H103.238V25.0679C103.238 26.1795 102.831 27.0407 101.422 27.0407C101.133 27.0407 100.843 26.994 100.608 26.9306" fill="var(--fill-0, #0a0a0a)"/>
<path id="Vector_132" d="M103.989 24.457H105.084V19.5098H105.805V25.0271H103.989V24.457Z" fill="var(--fill-0, #0a0a0a)"/>
<path id="Vector_133" d="M128.884 25.9306V18.5792L131.514 15.6802L139.068 25.9306H128.884Z" fill="var(--fill-0, #0a0a0a)"/>
<path id="Vector_134" d="M128.884 10.6214V0.0346902H138.662L128.884 10.6214Z" fill="var(--fill-0, #0a0a0a)"/>
<path id="Vector_135" d="M123.13 0H113.831V0.496229L114.341 1.01357L113.831 1.52489V2.71192L114.084 2.96833L113.831 3.22172V4.36802L113.908 4.44495L113.831 4.52187V4.93062H114.765L114.751 4.90347L114.575 4.55354L115.053 4.3092L115.294 4.79035L115.072 4.90347L115.02 4.93062H117.615V7.4902L117.656 7.41177L117.728 7.26999L117.733 7.26094L118.21 7.50679L117.965 7.98643L117.728 7.86425L117.656 7.82655L117.615 7.80543V10.27L117.656 10.2489L117.728 10.2127L117.961 10.0935L118.202 10.5747L117.728 10.816H117.724L117.655 10.6817L117.614 10.6018V15.4555L117.655 15.2036L117.707 14.8703L117.727 14.8733L118.831 15.0528L118.65 16.184L117.727 16.0347L117.655 16.0226L117.614 16.0166V25.9155H123.175V0H123.128H123.13ZM117.513 4.46003L116.742 4.58069L116.621 3.80392L117.392 3.68326L117.513 4.46003ZM116.979 2.22624L117.267 3.12971L116.371 3.42081L116.081 2.51735L116.979 2.22624ZM116.312 4.54751L115.697 4.74661L115.499 4.1267L116.115 3.9276L116.312 4.54751ZM113.959 2.03922L114.722 1.48265L115.274 2.25189L114.511 2.80845L113.959 2.03922ZM114.278 4.27753L113.899 3.74962L114.422 3.36802L114.801 3.89593L114.278 4.27753ZM115.22 3.79487L114.867 3.09351L115.563 2.73906L115.916 3.44042L115.22 3.79487ZM117.728 3.15083L117.563 2.07541L118.686 1.89894L118.716 2.09653L118.861 3.03167L117.738 3.20814L117.728 3.15083ZM120.244 10.7979L119.692 10.0287L120.455 9.4721L121.008 10.2413L120.244 10.7979ZM120.268 12.5143L119.373 12.8054L119.083 11.902L119.98 11.6109L120.27 12.5143H120.268ZM119.534 9.59879L118.983 9.04223L119.537 8.48718L120.087 9.04374L119.534 9.59879ZM121.33 10.7541L121.845 11.7768L120.83 12.2941L120.315 11.2715L121.33 10.7541ZM121.339 7.34088L120.327 6.8175L120.846 5.79789L121.858 6.32127L121.339 7.34088ZM121.014 7.85068L120.459 8.61689L119.698 8.05732L120.253 7.2911L121.014 7.85068ZM119.992 6.47662L119.098 6.181L119.392 5.27903L120.288 5.57466L119.994 6.47662H119.992ZM119.771 6.99849L119.415 7.69834L118.721 7.33937L119.077 6.63952L119.771 6.99849ZM118.893 4.58522H117.952L117.955 3.63348H118.896L118.893 4.58522ZM118.072 5.02564L118.843 5.15083L118.719 5.9276L117.949 5.80241L118.072 5.02715V5.02564ZM119.14 8.1448L118.759 8.67119L118.237 8.28808L118.618 7.76169L119.14 8.1448ZM119.136 9.93816L118.612 10.3198L118.234 9.79186L118.757 9.41026L119.136 9.93816ZM118.703 12.1538L118.824 12.9306L118.053 13.0513L117.932 12.2745L118.703 12.1538ZM118.712 10.7421L119.407 10.3876L119.76 11.089L119.065 11.4434L118.712 10.7421ZM117.778 6.8537L117.979 6.23529L118.593 6.43741L118.392 7.05581L117.778 6.8537ZM118.068 9.42082L117.728 9.07843L117.689 9.03922L117.728 9.00151L118.069 8.65913L118.446 9.04072L118.068 9.42082ZM118.383 11.0226L118.581 11.6425L117.965 11.8416L117.768 11.2217L118.383 11.0226ZM117.928 14.4434V13.4947L118.872 13.4962V14.4449L117.928 14.4419V14.4434Z" fill="var(--fill-0, #0a0a0a)"/>
<path id="Vector_136" d="M121 34.2006L120.543 31.184C120.448 30.6214 120.373 29.9623 120.32 29.3997H120.299C120.193 29.9412 120.044 30.6214 119.873 31.2368L118.961 34.1991H117.421L116.551 31.4585C116.359 30.822 116.167 30.0468 116.072 29.3982H116.051C115.998 30.0784 115.935 30.736 115.849 31.3318L115.499 34.1991H113.833L114.979 27.0302H116.879L117.878 30.2051C118.006 30.5988 118.164 31.2564 118.271 31.7662H118.293C118.409 31.1931 118.569 30.5867 118.697 30.2051L119.706 27.0302H121.575L122.722 34.1991H121.001L121 34.2006Z" fill="var(--fill-0, #0a0a0a)"/>
<path id="Vector_137" d="M130.941 27.0317H129.285V34.2006H130.941V27.0317Z" fill="var(--fill-0, #0a0a0a)"/>
<path id="Vector_138" d="M138.131 34.2006V27.0317H139.787V32.7345H141.955V34.2006H138.131Z" fill="var(--fill-0, #0a0a0a)"/>
<path id="Vector_139" d="M148.422 34.2006V27.0317H152.457V28.4223H150.078V29.8462H152.33V31.1946H150.078V32.7768H152.457V34.2006H148.422Z" fill="var(--fill-0, #0a0a0a)"/>
<path id="Vector_140" d="M138.762 37.1433L138.606 37.1388H138.561C138.504 37.1795 138.466 37.2308 138.466 37.2881C138.466 37.3786 138.551 37.4329 138.673 37.4329C138.831 37.4329 138.917 37.362 138.917 37.27C138.917 37.1976 138.869 37.1493 138.76 37.1448" fill="var(--fill-0, #0a0a0a)"/>
<path id="Vector_141" d="M149.377 36.4163C149.274 36.4163 149.202 36.4917 149.187 36.6154H149.547C149.551 36.4902 149.484 36.4163 149.377 36.4163Z" fill="var(--fill-0, #0a0a0a)"/>
<path id="Vector_142" d="M119.14 36.7526C119.25 36.7526 119.318 36.6893 119.318 36.5852C119.318 36.4811 119.255 36.4148 119.143 36.4148C119.032 36.4148 118.964 36.4872 118.964 36.5852C118.964 36.6908 119.027 36.7526 119.14 36.7526Z" fill="var(--fill-0, #0a0a0a)"/>
<path id="Vector_143" d="M119.237 37.1433L119.081 37.1388H119.036C118.979 37.1795 118.941 37.2308 118.941 37.2881C118.941 37.3786 119.026 37.4329 119.149 37.4329C119.308 37.4329 119.394 37.362 119.394 37.27C119.394 37.1976 119.345 37.1493 119.237 37.1448" fill="var(--fill-0, #0a0a0a)"/>
<path id="Vector_144" d="M126.514 36.7436C126.514 36.914 126.567 37.0091 126.682 37.0091C126.816 37.0091 126.891 36.8492 126.891 36.7044V36.4419C126.846 36.4314 126.801 36.4268 126.757 36.4268C126.612 36.4268 126.514 36.5158 126.514 36.7436Z" fill="var(--fill-0, #0a0a0a)"/>
<path id="Vector_145" d="M137.759 36.4329C137.649 36.4329 137.541 36.5173 137.541 36.7119C137.541 36.9065 137.617 37.003 137.757 37.003C137.875 37.003 137.971 36.911 137.971 36.7164C137.971 36.537 137.902 36.4344 137.759 36.4344" fill="var(--fill-0, #0a0a0a)"/>
<path id="Vector_146" d="M138.665 36.7526C138.775 36.7526 138.843 36.6893 138.843 36.5852C138.843 36.4811 138.78 36.4148 138.668 36.4148C138.557 36.4148 138.487 36.4872 138.487 36.5852C138.487 36.6908 138.551 36.7526 138.664 36.7526" fill="var(--fill-0, #0a0a0a)"/>
<path id="Vector_147" d="M150.834 36.7526C150.944 36.7526 151.012 36.6893 151.012 36.5852C151.012 36.4811 150.949 36.4148 150.837 36.4148C150.725 36.4148 150.656 36.4872 150.656 36.5852C150.656 36.6908 150.719 36.7526 150.833 36.7526" fill="var(--fill-0, #0a0a0a)"/>
<path id="Vector_148" d="M150.931 37.1433L150.775 37.1388H150.728C150.671 37.1795 150.633 37.2308 150.633 37.2881C150.633 37.3786 150.718 37.4329 150.84 37.4329C150.998 37.4329 151.084 37.362 151.084 37.27C151.084 37.1976 151.038 37.1493 150.928 37.1448" fill="var(--fill-0, #0a0a0a)"/>
<path id="Vector_149" d="M113.679 38H152.658V35.2715H113.679V38ZM115.596 37.1418L115.504 36.5264C115.489 36.4103 115.477 36.3107 115.468 36.2383H115.465C115.451 36.3017 115.43 36.3861 115.403 36.4736L115.184 37.1418H114.997L114.789 36.5173C114.759 36.4223 114.732 36.3228 114.715 36.2368H114.713C114.704 36.3333 114.695 36.4344 114.682 36.543L114.609 37.1418H114.422L114.594 35.9955H114.814L115.036 36.6621C115.057 36.721 115.081 36.8175 115.101 36.8959H115.103C115.125 36.8115 115.145 36.733 115.167 36.6682L115.392 35.9955H115.615L115.79 37.1418H115.599H115.596ZM116.172 37.1418H115.989V36.2971H116.172V37.1418ZM116.081 36.1478C116.017 36.1478 115.964 36.098 115.964 36.0347C115.964 35.9713 116.017 35.9201 116.081 35.9201C116.146 35.9201 116.198 35.9713 116.198 36.0347C116.198 36.098 116.145 36.1478 116.081 36.1478ZM117.145 37.1418H116.965V36.6003C116.965 36.4947 116.937 36.4329 116.84 36.4329C116.713 36.4329 116.62 36.5671 116.62 36.7376V37.1433H116.437V36.2986H116.611C116.611 36.3439 116.608 36.4178 116.599 36.4646H116.6C116.65 36.356 116.751 36.2805 116.894 36.2805C117.086 36.2805 117.146 36.4027 117.146 36.5505V37.1418H117.145ZM117.591 37.1418H117.409V36.2971H117.591V37.1418ZM117.502 36.1478C117.437 36.1478 117.385 36.098 117.385 36.0347C117.385 35.9713 117.437 35.9201 117.502 35.9201C117.567 35.9201 117.618 35.9713 117.618 36.0347C117.618 36.098 117.566 36.1478 117.502 36.1478ZM118.566 37.1418H118.386V36.6003C118.386 36.4947 118.357 36.4329 118.261 36.4329C118.133 36.4329 118.039 36.5671 118.039 36.7376V37.1433H117.857V36.2986H118.03C118.03 36.3439 118.027 36.4178 118.018 36.4646H118.02C118.069 36.356 118.17 36.2805 118.314 36.2805C118.505 36.2805 118.566 36.4027 118.566 36.5505V37.1418ZM119.119 37.5732C118.899 37.5732 118.76 37.4842 118.76 37.3198C118.76 37.2262 118.825 37.1433 118.897 37.1026C118.846 37.0799 118.814 37.0332 118.814 36.9759C118.814 36.914 118.854 36.8567 118.911 36.8296C118.833 36.7858 118.786 36.7089 118.786 36.5988C118.786 36.4284 118.911 36.2805 119.151 36.2805C119.201 36.2805 119.234 36.2881 119.278 36.2971H119.564V36.4404H119.434C119.471 36.4706 119.49 36.5189 119.49 36.5747C119.49 36.7511 119.371 36.8808 119.131 36.8808C119.101 36.8808 119.078 36.8778 119.051 36.8703C119.018 36.8854 119.001 36.911 119.001 36.9336C119.001 36.9774 119.041 36.991 119.14 36.994L119.284 36.9985C119.468 37.006 119.569 37.0875 119.569 37.2428C119.569 37.4253 119.386 37.5732 119.115 37.5732M125.149 37.1418H124.964V35.9955H125.149V37.1418ZM126.125 37.1418H125.946V36.6003C125.946 36.4947 125.917 36.4329 125.82 36.4329C125.694 36.4329 125.6 36.5671 125.6 36.7376V37.1433H125.418V36.2986H125.591C125.591 36.3439 125.588 36.4178 125.579 36.4646H125.581C125.63 36.356 125.731 36.2805 125.875 36.2805C126.066 36.2805 126.127 36.4027 126.127 36.5505V37.1418H126.125ZM127.071 37.1418H126.899C126.899 37.098 126.902 37.0317 126.911 36.9834H126.908C126.863 37.0875 126.763 37.1584 126.632 37.1584C126.425 37.1584 126.321 37.006 126.321 36.7602C126.321 36.4691 126.49 36.2821 126.763 36.2821C126.804 36.2821 126.845 36.2851 126.891 36.2896V35.9005H127.071V37.1403V37.1418ZM128.045 37.1418H127.872C127.872 37.095 127.875 37.0226 127.884 36.9759H127.882C127.833 37.0845 127.732 37.1599 127.588 37.1599C127.397 37.1599 127.336 37.0377 127.336 36.8899V36.2986H127.516V36.8401C127.516 36.9457 127.544 37.0091 127.641 37.0091C127.769 37.0091 127.861 36.8748 127.861 36.7044V36.2986H128.044V37.1433L128.045 37.1418ZM128.452 37.1584C128.388 37.1584 128.318 37.1493 128.265 37.1342L128.279 36.9789C128.332 36.9985 128.4 37.0106 128.465 37.0106C128.56 37.0106 128.626 36.9683 128.626 36.9005C128.626 36.727 128.255 36.8326 128.255 36.54C128.255 36.3922 128.366 36.2775 128.6 36.2775C128.652 36.2775 128.71 36.2851 128.76 36.2941L128.75 36.4404C128.7 36.4253 128.644 36.4163 128.59 36.4163C128.49 36.4163 128.442 36.457 128.442 36.5219C128.442 36.6878 128.816 36.5973 128.816 36.8808C128.816 37.0407 128.677 37.1569 128.452 37.1569M129.296 37.1569C129.116 37.1569 129.06 37.0875 129.06 36.8989V36.4389H128.899V36.2971H129.06V36.0287L129.243 35.9789V36.2971H129.463V36.4389H129.243V36.8431C129.243 36.9683 129.268 37.003 129.353 37.003C129.391 37.003 129.425 36.9985 129.457 36.9909L129.472 37.1373C129.421 37.1493 129.351 37.1569 129.296 37.1569ZM130.09 36.46C129.923 36.4284 129.84 36.5445 129.84 36.7979V37.1418H129.658V36.2971H129.831C129.831 36.3454 129.827 36.4193 129.814 36.4842H129.817C129.855 36.3695 129.94 36.2655 130.098 36.2821L130.089 36.46H130.09ZM130.62 37.2006C130.514 37.4827 130.403 37.5701 130.21 37.5701C130.178 37.5701 130.131 37.5656 130.103 37.5596L130.124 37.4012C130.152 37.4103 130.193 37.4148 130.228 37.4148C130.308 37.4148 130.383 37.3756 130.439 37.2247L130.469 37.1418L130.154 36.2971H130.356L130.495 36.6833C130.52 36.7602 130.543 36.8326 130.561 36.905H130.563C130.579 36.8371 130.615 36.7285 130.646 36.641L130.766 36.2971H130.961L130.62 37.2006ZM137.294 37.1418H136.715V35.9955H136.9V36.9804H137.294V37.1418ZM137.739 37.1584C137.505 37.1584 137.353 37.0272 137.353 36.73C137.353 36.4751 137.517 36.279 137.772 36.279C138 36.279 138.16 36.4042 138.16 36.7029C138.16 36.9623 137.989 37.1584 137.739 37.1584ZM138.644 37.5732C138.424 37.5732 138.285 37.4842 138.285 37.3198C138.285 37.2262 138.35 37.1433 138.422 37.1026C138.371 37.0799 138.339 37.0332 138.339 36.9759C138.339 36.914 138.379 36.8567 138.436 36.8296C138.357 36.7858 138.311 36.7089 138.311 36.5988C138.311 36.4284 138.436 36.2805 138.676 36.2805C138.725 36.2805 138.759 36.2881 138.802 36.2971H139.089V36.4404H138.959C138.995 36.4706 139.015 36.5189 139.015 36.5747C139.015 36.7511 138.896 36.8808 138.656 36.8808C138.626 36.8808 138.603 36.8778 138.576 36.8703C138.544 36.8854 138.526 36.911 138.526 36.9336C138.526 36.9774 138.566 36.991 138.665 36.994L138.808 36.9985C138.992 37.006 139.093 37.0875 139.093 37.2428C139.093 37.4253 138.911 37.5732 138.639 37.5732M139.46 37.1418H139.278V36.2971H139.46V37.1418ZM139.371 36.1478C139.306 36.1478 139.253 36.098 139.253 36.0347C139.253 35.9713 139.306 35.9201 139.371 35.9201C139.436 35.9201 139.487 35.9713 139.487 36.0347C139.487 36.098 139.434 36.1478 139.371 36.1478ZM139.869 37.1584C139.804 37.1584 139.735 37.1493 139.682 37.1342L139.695 36.9789C139.748 36.9985 139.816 37.0106 139.881 37.0106C139.976 37.0106 140.042 36.9683 140.042 36.9005C140.042 36.727 139.671 36.8326 139.671 36.54C139.671 36.3922 139.783 36.2775 140.017 36.2775C140.068 36.2775 140.127 36.2851 140.176 36.2941L140.166 36.4404C140.116 36.4253 140.06 36.4163 140.006 36.4163C139.906 36.4163 139.858 36.457 139.858 36.5219C139.858 36.6878 140.232 36.5973 140.232 36.8808C140.232 37.0407 140.093 37.1569 139.869 37.1569M140.71 37.1569C140.531 37.1569 140.477 37.0875 140.477 36.8989V36.4389H140.315V36.2971H140.477V36.0287L140.659 35.9789V36.2971H140.879V36.4389H140.659V36.8431C140.659 36.9683 140.685 37.003 140.769 37.003C140.807 37.003 140.842 36.9985 140.873 36.9909L140.888 37.1373C140.837 37.1493 140.768 37.1569 140.712 37.1569M141.256 37.1418H141.074V36.2971H141.256V37.1418ZM141.166 36.1478C141.101 36.1478 141.048 36.098 141.048 36.0347C141.048 35.9713 141.101 35.9201 141.166 35.9201C141.231 35.9201 141.282 35.9713 141.282 36.0347C141.282 36.098 141.229 36.1478 141.166 36.1478ZM141.83 37.1554C141.612 37.1554 141.454 37.0483 141.454 36.7481C141.454 36.4796 141.591 36.2836 141.873 36.2836C141.944 36.2836 142.015 36.2941 142.071 36.3152L142.041 36.4721C141.989 36.4525 141.926 36.4359 141.864 36.4359C141.721 36.4359 141.646 36.5535 141.646 36.727C141.646 36.8808 141.7 36.9985 141.866 36.9985C141.932 36.9985 141.995 36.9864 142.048 36.9608L142.075 37.1116C142.006 37.1403 141.916 37.1538 141.831 37.1538M147.852 36.1493H147.433V36.4751H147.833V36.6259H147.433V36.9834H147.852V37.1418H147.247V35.9955H147.852V36.1508V36.1493ZM148.801 37.1418H148.621V36.6003C148.621 36.4947 148.593 36.4329 148.496 36.4329C148.37 36.4329 148.276 36.5671 148.276 36.7376V37.1433H148.093V36.2986H148.267C148.267 36.3439 148.264 36.4178 148.255 36.4646H148.256C148.306 36.356 148.407 36.2805 148.551 36.2805C148.742 36.2805 148.802 36.4027 148.802 36.5505V37.1418H148.801ZM149.722 36.7406H149.185C149.181 36.9246 149.262 37.0121 149.436 37.0121C149.517 37.0121 149.602 36.9955 149.679 36.9623L149.703 37.1041C149.614 37.1373 149.51 37.1584 149.404 37.1584C149.145 37.1584 149 37.0226 149 36.7255C149 36.4721 149.145 36.2805 149.389 36.2805C149.633 36.2805 149.73 36.4404 149.73 36.632C149.73 36.6591 149.728 36.7044 149.724 36.7406M150.367 36.46C150.199 36.4284 150.116 36.5445 150.116 36.7979V37.1418H149.934V36.2971H150.107C150.107 36.3454 150.103 36.4193 150.09 36.4842H150.093C150.131 36.3695 150.216 36.2655 150.374 36.2821L150.365 36.46H150.367ZM150.813 37.5732C150.593 37.5732 150.454 37.4842 150.454 37.3198C150.454 37.2262 150.519 37.1433 150.591 37.1026C150.54 37.0799 150.508 37.0332 150.508 36.9759C150.508 36.914 150.547 36.8567 150.605 36.8296C150.526 36.7858 150.48 36.7089 150.48 36.5988C150.48 36.4284 150.605 36.2805 150.845 36.2805C150.894 36.2805 150.928 36.2881 150.973 36.2971H151.259V36.4404H151.13C151.166 36.4706 151.185 36.5189 151.185 36.5747C151.185 36.7511 151.066 36.8808 150.827 36.8808C150.796 36.8808 150.774 36.8778 150.747 36.8703C150.715 36.8854 150.697 36.911 150.697 36.9336C150.697 36.9774 150.736 36.991 150.836 36.994L150.979 36.9985C151.163 37.006 151.264 37.0875 151.264 37.2428C151.264 37.4253 151.083 37.5732 150.81 37.5732M151.814 37.2006C151.709 37.4827 151.597 37.5701 151.404 37.5701C151.373 37.5701 151.326 37.5656 151.297 37.5596L151.318 37.4012C151.347 37.4103 151.388 37.4148 151.422 37.4148C151.502 37.4148 151.576 37.3756 151.633 37.2247L151.664 37.1418L151.348 36.2971H151.551L151.689 36.6833C151.715 36.7602 151.738 36.8326 151.756 36.905H151.757C151.774 36.8371 151.81 36.7285 151.84 36.641L151.961 36.2971H152.155L151.814 37.2006Z" fill="var(--fill-0, #0a0a0a)"/>
<path id="Vector_150" d="M145.879 0.0346902L135.561 11.4314L145.879 25.9306H152.459V0.0346902H145.879Z" fill="var(--fill-0, #0a0a0a)"/>
<path id="Vector_151" d="M0.570125 37.8492V30.3846H4.30316V31.2247H1.55957V33.5913H4.17495V34.4103H1.55957V36.997H4.30316V37.8492H0.570125Z" fill="var(--fill-0, #0a0a0a)"/>
</g>
</svg>
